<svg width="88" height="98" viewBox="0 0 88 98" fill="none" xmlns="http://www.w3.org/2000/svg">
<path opacity="0.8" d="M88 49C73.4503 33.4464 62.4055 28.2214 54.1422 28.1808C50.2464 28.1617 46.969 29.295 44.2339 31.0415C48.3306 33.7963 51.2935 37.9717 52.5661 42.7834C53.4829 46.2496 53.4828 49.8993 52.5661 53.3656L51.9798 55.5819C50.7672 60.1669 48.0177 64.1814 44.2028 66.937C52.7367 72.4099 66.5638 71.9152 88 49ZM44.2028 66.937C42.978 66.1515 41.8621 65.2437 40.8486 64.2609C41.1864 65.6604 41.4077 67.1131 41.4631 68.6014C42.4183 68.1208 43.3344 67.5643 44.2028 66.937ZM41.4631 68.6014C37.0612 70.8159 32.0129 71.3268 27.2656 70.0381C23.8442 69.1092 20.7244 67.2843 18.2198 64.7467L16.7628 63.1636C13.418 59.7749 11.3545 55.3036 10.9328 50.5304C1.91608 55.2269 -4.68778 67.578 4.22821 98C24.7985 93.0111 34.7873 85.9331 38.9536 78.7033C40.9135 75.3024 41.5847 71.8679 41.4631 68.6014ZM10.9328 50.5304C12.1738 49.884 13.4605 49.3834 14.7587 48.9999C13.4457 48.6119 12.145 48.1033 10.891 47.4462C10.8282 48.4739 10.8422 49.5048 10.9328 50.5304ZM10.891 47.4462C11.1945 42.4698 13.2827 37.7773 16.7625 34.2517C19.2672 31.7141 22.3871 29.8893 25.8086 28.9605L27.8518 28.3274C32.3818 27.0977 37.1931 27.5049 41.4589 29.4791C41.8809 19.2506 34.5548 7.35512 4.22821 -3.66178e-06C-1.79233 20.5425 -0.736352 32.8455 3.36057 40.1158C5.32141 43.5955 7.97938 45.9206 10.891 47.4462ZM41.4589 29.4791C41.3986 30.9392 41.1808 32.3653 40.849 33.7394C41.8714 32.7481 42.9966 31.8316 44.2339 31.0415C43.3508 30.4477 42.4229 29.9253 41.4589 29.4791ZM40.849 33.7394C38.6725 37.1483 31.8048 43.2735 33.0584 48.0134C34.9366 45.8748 39.2338 40.4307 40.849 33.7394ZM14.7587 48.9999C18.7225 49.1795 27.5946 52.19 31.0102 48.7292C28.339 48.1582 21.3992 47.038 14.7587 48.9999ZM40.8486 64.2609C39.0234 60.6411 37.2284 51.5777 32.5485 50.3071C33.4425 53.0347 35.9469 59.5082 40.8486 64.2609Z" fill="white" fill-opacity="0.8"/>
</svg>
